<?xml version="1.0" standalone="no"?>
<!DOCTYPE svg PUBLIC "-//W3C//DTD SVG 20010904//EN"
 "http://www.w3.org/TR/2001/REC-SVG-20010904/DTD/svg10.dtd">
<svg version="1.0" xmlns="http://www.w3.org/2000/svg"
 width="700.000000pt" height="700.000000pt" viewBox="0 0 700.000000 700.000000"
 preserveAspectRatio="xMidYMid meet">
<metadata>
Created by potrace 1.11, written by Peter Selinger 2001-2013
</metadata>
<g transform="translate(0.000000,700.000000) scale(0.100000,-0.100000)"
fill="#000000" stroke="none">
<path d="M3520 6781 c0 -5 -58 -110 -128 -233 -71 -123 -150 -261 -177 -308
-74 -132 -170 -301 -195 -345 -12 -22 -26 -44 -30 -50 -4 -5 -24 -41 -45 -80
-21 -38 -45 -78 -53 -87 -8 -10 -12 -18 -8 -18 4 0 -1 -12 -12 -27 -11 -16
-77 -129 -147 -253 -70 -124 -143 -252 -162 -285 -19 -33 -48 -82 -63 -110
-15 -27 -68 -120 -117 -206 -49 -86 -93 -162 -96 -170 -4 -8 -17 -30 -28 -49
-12 -19 -131 -228 -266 -465 -135 -236 -269 -470 -298 -520 -240 -408 -337
-750 -338 -1185 -1 -104 2 -149 19 -300 10 -89 57 -277 101 -405 190 -548 598
-1004 1125 -1259 137 -67 169 -80 298 -120 154 -49 184 -56 335 -81 232 -37
507 -39 690 -5 28 5 64 11 80 13 43 6 199 45 270 68 427 135 817 404 1087 750
263 337 413 713 463 1159 7 63 7 312 0 385 -4 46 -7 69 -21 165 -3 19 -10 55
-16 80 -5 25 -12 56 -14 70 -8 43 -65 221 -96 300 -45 114 -118 255 -214 413
-48 78 -125 205 -172 282 -47 77 -111 183 -144 235 -32 52 -62 102 -67 110 -5
8 -64 105 -132 215 -67 110 -221 362 -342 560 -120 198 -229 376 -242 395 -26
40 -422 688 -445 729 -55 97 -392 641 -397 641 -2 0 -3 -4 -3 -9z"/>
</g>
</svg>
